{
    "asset" : {
        "copyright" : "Dave Productions",
        "generator" : "Khronos glTF Blender I/O v1.3.48",
        "version" : "2.0"
    },
    "scene" : 0,
    "scenes" : [
        {
            "name" : "Scene",
            "nodes" : [
                0
            ]
        }
    ],
    "nodes" : [
        {
            "mesh" : 0,
            "name" : "Icosphere",
            "rotation" : [
                0,
                0.4253294765949249,
                0,
                0.905038595199585
            ]
        }
    ],
    "materials" : [
        {
            "doubleSided" : true,
            "name" : "Material.002",
            "pbrMetallicRoughness" : {}
        }
    ],
    "meshes" : [
        {
            "name" : "Icosphere.001",
            "primitives" : [
                {
                    "attributes" : {
                        "POSITION" : 0,
                        "NORMAL" : 1,
                        "TEXCOORD_0" : 2
                    },
                    "indices" : 3,
                    "material" : 0
                }
            ]
        }
    ],
    "accessors" : [
        {
            "bufferView" : 0,
            "componentType" : 5126,
            "count" : 303,
            "max" : [
                0.8854201436042786,
                0.9830829501152039,
                0.8456233739852905
            ],
            "min" : [
                -0.8854201436042786,
                -0.9830828905105591,
                -0.8456234931945801
            ],
            "type" : "VEC3"
        },
        {
            "bufferView" : 1,
            "componentType" : 5126,
            "count" : 303,
            "type" : "VEC3"
        },
        {
            "bufferView" : 2,
            "componentType" : 5126,
            "count" : 303,
            "type" : "VEC2"
        },
        {
            "bufferView" : 3,
            "componentType" : 5123,
            "count" : 780,
            "type" : "SCALAR"
        }
    ],
    "bufferViews" : [
        {
            "buffer" : 0,
            "byteLength" : 3636,
            "byteOffset" : 0
        },
        {
            "buffer" : 0,
            "byteLength" : 3636,
            "byteOffset" : 3636
        },
        {
            "buffer" : 0,
            "byteLength" : 2424,
            "byteOffset" : 7272
        },
        {
            "buffer" : 0,
            "byteLength" : 1560,
            "byteOffset" : 9696
        }
    ],
    "buffers" : [
        {
            "byteLength" : 11256,
            "uri" : "data:application/octet-stream;base64,"
        }
    ]
}
