{
    "asset" : {
        "generator" : "Khronos glTF Blender I/O v1.3.48",
        "version" : "2.0"
    },
    "scene" : 0,
    "scenes" : [
        {
            "name" : "Scene",
            "nodes" : [
                0
            ]
        }
    ],
    "nodes" : [
        {
            "mesh" : 0,
            "name" : "Icosphere"
        }
    ],
    "materials" : [
        {
            "doubleSided" : true,
            "emissiveFactor" : [
                0,
                0,
                0
            ],
            "name" : "Material.003",
            "normalTexture" : {
                "index" : 0,
                "texCoord" : 0
            },
            "pbrMetallicRoughness" : {
                "baseColorTexture" : {
                    "index" : 1,
                    "texCoord" : 0
                },
                "metallicRoughnessTexture" : {
                    "index" : 2,
                    "texCoord" : 0
                }
            }
        }
    ],
    "meshes" : [
        {
            "name" : "Icosphere.001",
            "primitives" : [
                {
                    "attributes" : {
                        "POSITION" : 0,
                        "NORMAL" : 1,
                        "TEXCOORD_0" : 2
                    },
                    "indices" : 3,
                    "material" : 0
                }
            ]
        }
    ],
    "textures" : [
        {
            "source" : 0
        },
        {
            "source" : 1
        },
        {
            "source" : 2
        }
    ],
    "images" : [
        {
            "bufferView" : 4,
            "mimeType" : "image/png",
            "name" : "dice.2blend_Material.003_Normal"
        },
        {
            "bufferView" : 5,
            "mimeType" : "image/png",
            "name" : "dice.2blend_Material.003_BaseColor"
        },
        {
            "bufferView" : 6,
            "mimeType" : "image/png",
            "name" : "dice.2blend_Material.003_Metallic-dice.2blend_Material.003_Roughness"
        }
    ],
    "accessors" : [
        {
            "bufferView" : 0,
            "componentType" : 5126,
            "count" : 19726,
            "max" : [
                1.967864990234375,
                2.249152898788452,
                2.0215678215026855
            ],
            "min" : [
                -1.967864751815796,
                -2.249152660369873,
                -2.0215678215026855
            ],
            "type" : "VEC3"
        },
        {
            "bufferView" : 1,
            "componentType" : 5126,
            "count" : 19726,
            "type" : "VEC3"
        },
        {
            "bufferView" : 2,
            "componentType" : 5126,
            "count" : 19726,
            "type" : "VEC2"
        },
        {
            "bufferView" : 3,
            "componentType" : 5123,
            "count" : 24282,
            "type" : "SCALAR"
        }
    ],
    "bufferViews" : [
        {
            "buffer" : 0,
            "byteLength" : 236712,
            "byteOffset" : 0
        },
        {
            "buffer" : 0,
            "byteLength" : 236712,
            "byteOffset" : 236712
        },
        {
            "buffer" : 0,
            "byteLength" : 157808,
            "byteOffset" : 473424
        },
        {
            "buffer" : 0,
            "byteLength" : 48564,
            "byteOffset" : 631232
        },
        {
            "buffer" : 0,
            "byteLength" : 17889,
            "byteOffset" : 679796
        },
        {
            "buffer" : 0,
            "byteLength" : 331580,
            "byteOffset" : 697688
        },
        {
            "buffer" : 0,
            "byteLength" : 381559,
            "byteOffset" : 1029268
        }
    ],
    "buffers" : [
        {
            "byteLength" : 1410828,
            "uri" : "data:application/octet-stream;base64,"
        }
    ]
}
