# Blender v2.90.1 OBJ File: ''
# www.blender.org
mtllib Dice.mtl
o Icosphere_Icosphere.001
v -0.030858 -0.970861 0.022420
v -0.030858 -0.970861 -0.022420
v 0.011787 -0.970861 -0.036276
v 0.038144 -0.970861 0.000000
v 0.011787 -0.970861 0.036276
v -0.032723 -0.973879 0.000000
v 0.000000 -0.983083 -0.000000
v -0.010112 -0.973878 -0.031122
v 0.026474 -0.973878 -0.019234
v 0.026474 -0.973878 0.019234
v -0.010112 -0.973878 0.031122
v 0.704528 -0.461785 0.484151
v 0.728102 -0.423641 0.484151
v 0.716315 -0.400067 0.520428
v 0.685457 -0.423641 0.542848
v 0.678172 -0.461785 0.520428
v 0.719333 -0.444578 0.484151
v 0.711359 -0.439649 0.516826
v 0.725582 -0.411854 0.503386
v 0.702971 -0.411854 0.534507
v 0.682747 -0.444578 0.534507
v 0.692859 -0.464802 0.503386
v -0.285390 -0.461785 0.805800
v -0.242744 -0.461785 0.819656
v -0.235460 -0.423641 0.842076
v -0.273603 -0.400067 0.842076
v -0.304461 -0.423641 0.819656
v -0.264643 -0.464802 0.814502
v -0.271709 -0.439649 0.836250
v -0.238170 -0.444578 0.833736
v -0.254531 -0.411854 0.845623
v -0.291117 -0.411854 0.833736
v -0.297367 -0.444578 0.814502
v -0.854561 -0.461785 -0.022420
v -0.854561 -0.461785 0.022420
v -0.873633 -0.423641 0.036276
v -0.885420 -0.400066 0.000000
v -0.873633 -0.423641 -0.036276
v -0.856426 -0.464802 0.000000
v -0.879294 -0.439649 -0.000000
v -0.866538 -0.444578 0.031122
v -0.882900 -0.411854 0.019234
v -0.882900 -0.411854 -0.019234
v -0.866539 -0.444578 -0.031122
v -0.242744 -0.461785 -0.819656
v -0.285390 -0.461785 -0.805800
v -0.304461 -0.423641 -0.819656
v -0.273603 -0.400067 -0.842076
v -0.235460 -0.423641 -0.842076
v -0.264643 -0.464802 -0.814502
v -0.271710 -0.439649 -0.836250
v -0.297367 -0.444578 -0.814502
v -0.291117 -0.411854 -0.833736
v -0.254531 -0.411854 -0.845623
v -0.238169 -0.444578 -0.833736
v 0.728102 -0.423641 -0.484151
v 0.704528 -0.461785 -0.484151
v 0.678172 -0.461785 -0.520428
v 0.685457 -0.423641 -0.542848
v 0.716315 -0.400067 -0.520428
v 0.719333 -0.444578 -0.484151
v 0.711359 -0.439650 -0.516826
v 0.692859 -0.464802 -0.503386
v 0.682747 -0.444578 -0.534507
v 0.702971 -0.411854 -0.534507
v 0.725582 -0.411854 -0.503386
v 0.235460 0.423641 0.842076
v 0.273603 0.400067 0.842076
v 0.304461 0.423641 0.819656
v 0.285390 0.461785 0.805800
v 0.242744 0.461785 0.819656
v 0.254531 0.411854 0.845623
v 0.271710 0.439649 0.836250
v 0.291117 0.411854 0.833736
v 0.297367 0.444578 0.814502
v 0.264643 0.464802 0.814502
v 0.238170 0.444578 0.833736
v -0.728102 0.423641 0.484151
v -0.716315 0.400067 0.520428
v -0.685457 0.423641 0.542848
v -0.678172 0.461785 0.520428
v -0.704528 0.461785 0.484151
v -0.725582 0.411854 0.503386
v -0.711359 0.439650 0.516826
v -0.702971 0.411854 0.534507
v -0.682747 0.444578 0.534507
v -0.692859 0.464802 0.503386
v -0.719333 0.444578 0.484151
v -0.685457 0.423641 -0.542848
v -0.716315 0.400067 -0.520428
v -0.728102 0.423641 -0.484151
v -0.704528 0.461785 -0.484151
v -0.678172 0.461785 -0.520428
v -0.702971 0.411854 -0.534507
v -0.711359 0.439650 -0.516826
v -0.725582 0.411854 -0.503386
v -0.719333 0.444578 -0.484151
v -0.692859 0.464802 -0.503386
v -0.682747 0.444578 -0.534507
v 0.304461 0.423641 -0.819656
v 0.273603 0.400067 -0.842076
v 0.235460 0.423641 -0.842076
v 0.242744 0.461785 -0.819656
v 0.285390 0.461785 -0.805800
v 0.291117 0.411854 -0.833736
v 0.271710 0.439649 -0.836250
v 0.254531 0.411854 -0.845623
v 0.238170 0.444578 -0.833736
v 0.264643 0.464802 -0.814502
v 0.297367 0.444578 -0.814502
v 0.873633 0.423641 0.036276
v 0.885420 0.400066 0.000000
v 0.873633 0.423641 -0.036276
v 0.854561 0.461785 -0.022420
v 0.854561 0.461785 0.022420
v 0.882900 0.411854 0.019234
v 0.879294 0.439650 -0.000000
v 0.882900 0.411854 -0.019234
v 0.866539 0.444578 -0.031122
v 0.856426 0.464802 0.000000
v 0.866538 0.444578 0.031122
v -0.011787 0.970861 0.036276
v 0.030858 0.970861 0.022420
v 0.030858 0.970861 -0.022420
v -0.011787 0.970861 -0.036276
v -0.038144 0.970861 0.000000
v 0.010112 0.973878 0.031122
v -0.000000 0.983083 0.000000
v 0.032723 0.973879 0.000000
v 0.010112 0.973878 -0.031122
v -0.026474 0.973878 -0.019234
v -0.026474 0.973878 0.019234
vt 0.720084 0.153311
vt 0.636363 0.008300
vt 0.552642 0.153311
vt 0.272727 0.008300
vt 0.189006 0.153311
vt 0.356448 0.153311
vt 0.818181 0.008300
vt 0.734460 0.153311
vt 0.901902 0.153311
vt 0.454545 0.008300
vt 0.370824 0.153311
vt 0.538266 0.153311
vt 0.901902 0.161611
vt 0.734460 0.161611
vt 0.818181 0.306621
vt 0.727272 0.165761
vt 0.643551 0.310771
vt 0.810993 0.310771
vt 0.720084 0.161611
vt 0.552642 0.161611
vt 0.636363 0.306621
vt 0.909090 0.165761
vt 0.825369 0.310771
vt 0.992812 0.310771
vt 0.181818 0.165761
vt 0.098097 0.310771
vt 0.265539 0.310771
vt 0.363636 0.165761
vt 0.279915 0.310771
vt 0.447357 0.310771
vt 0.174630 0.161611
vt 0.007188 0.161611
vt 0.090909 0.306621
vt 0.356448 0.161611
vt 0.189006 0.161611
vt 0.272727 0.306621
vt 0.538266 0.161611
vt 0.370824 0.161611
vt 0.454545 0.306621
vt 0.545454 0.165761
vt 0.461733 0.310771
vt 0.629175 0.310771
vt 0.810993 0.319071
vt 0.643551 0.319071
vt 0.727272 0.464082
vt 0.992812 0.319071
vt 0.825369 0.319071
vt 0.909090 0.464082
vt 0.265539 0.319071
vt 0.098097 0.319071
vt 0.181818 0.464082
vt 0.447357 0.319071
vt 0.279915 0.319071
vt 0.363636 0.464082
vt 0.629175 0.319071
vt 0.461733 0.319071
vt 0.545454 0.464082
vt 0.090909 0.008300
vt 0.094503 0.006225
vt 0.091678 0.001332
vt 0.087315 0.006225
vt 0.276321 0.006225
vt 0.273496 0.001332
vt 0.269133 0.006225
vt 0.458139 0.006225
vt 0.455314 0.001332
vt 0.450951 0.006225
vt 0.639957 0.006225
vt 0.637132 0.001332
vt 0.632769 0.006225
vt 0.821775 0.006225
vt 0.818950 0.001332
vt 0.814587 0.006225
vt 0.720084 0.157461
vt 0.727426 0.157727
vt 0.723678 0.151236
vt 0.723678 0.163686
vt 0.730866 0.163686
vt 0.734460 0.157461
vt 0.730866 0.151236
vt 0.007188 0.153311
vt 0.003594 0.151236
vt 0.000769 0.156129
vt 0.007188 0.157461
vt 0.901902 0.157461
vt 0.907552 0.157461
vt 0.905496 0.151236
vt 0.905496 0.163686
vt 0.908321 0.158793
vt 0.912684 0.163686
vt 0.909859 0.158793
vt 0.001538 0.157461
vt 0.003594 0.163686
vt 0.185412 0.151236
vt 0.181972 0.157727
vt 0.189006 0.157461
vt 0.174630 0.153311
vt 0.174630 0.157461
vt 0.178224 0.151236
vt 0.178224 0.163686
vt 0.185412 0.163686
vt 0.367230 0.151236
vt 0.363790 0.157727
vt 0.370824 0.157461
vt 0.356448 0.157461
vt 0.360042 0.151236
vt 0.360042 0.163686
vt 0.367230 0.163686
vt 0.552642 0.157461
vt 0.545608 0.157727
vt 0.549048 0.163686
vt 0.549048 0.151236
vt 0.538266 0.157461
vt 0.541860 0.151236
vt 0.541860 0.163686
vt 0.821775 0.308696
vt 0.818027 0.314655
vt 0.825369 0.314921
vt 0.814587 0.308696
vt 0.810993 0.314921
vt 0.814587 0.321146
vt 0.821775 0.321146
vt 0.094503 0.308696
vt 0.091678 0.313589
vt 0.098097 0.314921
vt 0.087315 0.308696
vt 0.090140 0.313589
vt 0.992812 0.314921
vt 0.998462 0.314921
vt 0.996406 0.308696
vt 0.996406 0.321146
vt 0.999231 0.316253
vt 0.092447 0.314921
vt 0.094503 0.321146
vt 0.276321 0.308696
vt 0.272573 0.314655
vt 0.279915 0.314921
vt 0.269133 0.308696
vt 0.265539 0.314921
vt 0.269133 0.321146
vt 0.276321 0.321146
vt 0.458139 0.308696
vt 0.454391 0.314655
vt 0.461733 0.314921
vt 0.450951 0.308696
vt 0.447357 0.314921
vt 0.450951 0.321146
vt 0.458139 0.321146
vt 0.639957 0.308696
vt 0.636209 0.314655
vt 0.643551 0.314921
vt 0.632769 0.308696
vt 0.629175 0.314921
vt 0.632769 0.321146
vt 0.639957 0.321146
vt 0.905496 0.466157
vt 0.908321 0.471050
vt 0.912684 0.466157
vt 0.723678 0.466157
vt 0.726503 0.471050
vt 0.730866 0.466157
vt 0.541860 0.466157
vt 0.544685 0.471050
vt 0.549048 0.466157
vt 0.360042 0.466157
vt 0.362867 0.471050
vt 0.367230 0.466157
vt 0.178224 0.466157
vt 0.181049 0.471050
vt 0.185412 0.466157
vn 0.6641 -0.7340 0.1422
vn 0.4684 -0.8835 -0.0000
vn 0.6641 -0.7340 -0.1422
vn -0.3789 -0.8835 -0.2753
vn -0.6208 -0.7340 -0.2753
vn -0.4537 -0.7340 -0.5054
vn 0.1447 -0.8835 0.4454
vn 0.3404 -0.7340 0.5876
vn 0.0700 -0.7340 0.6755
vn 0.1447 -0.8835 -0.4454
vn 0.0700 -0.7340 -0.6755
vn 0.3404 -0.7340 -0.5876
vn 0.1594 -0.2657 0.9508
vn 0.4299 -0.2657 0.8629
vn 0.3089 -0.0238 0.9508
vn 0.8088 0.0238 0.5876
vn 0.8550 0.2657 0.4454
vn 0.6878 0.2657 0.6755
vn 0.9535 -0.2657 0.1422
vn 0.9535 -0.2657 -0.1422
vn 0.9997 -0.0238 -0.0000
vn -0.3089 0.0238 0.9508
vn -0.1594 0.2657 0.9508
vn -0.4299 0.2657 0.8629
vn -0.9997 0.0238 -0.0000
vn -0.9535 0.2657 0.1422
vn -0.9535 0.2657 -0.1422
vn -0.3089 0.0238 -0.9508
vn -0.4299 0.2657 -0.8629
vn -0.1594 0.2657 -0.9508
vn -0.8550 -0.2657 0.4454
vn -0.6878 -0.2657 0.6755
vn -0.8088 -0.0238 0.5876
vn -0.6878 -0.2657 -0.6755
vn -0.8550 -0.2657 -0.4454
vn -0.8088 -0.0238 -0.5876
vn 0.4299 -0.2657 -0.8629
vn 0.1594 -0.2657 -0.9508
vn 0.3089 -0.0238 -0.9508
vn 0.8088 0.0238 -0.5876
vn 0.6878 0.2657 -0.6755
vn 0.8550 0.2657 -0.4454
vn 0.4537 0.7340 0.5054
vn 0.6208 0.7340 0.2753
vn 0.3789 0.8835 0.2753
vn -0.3404 0.7340 0.5876
vn -0.0700 0.7340 0.6755
vn -0.1447 0.8835 0.4454
vn -0.6641 0.7340 -0.1422
vn -0.6641 0.7340 0.1422
vn -0.4684 0.8835 -0.0000
vn -0.0700 0.7340 -0.6755
vn -0.3404 0.7340 -0.5876
vn -0.1447 0.8835 -0.4454
vn 0.6208 0.7340 -0.2753
vn 0.4537 0.7340 -0.5054
vn 0.3789 0.8835 -0.2753
vn -0.3789 -0.8835 0.2753
vn -0.3949 -0.9187 -0.0000
vn 0.0000 -1.0000 0.0000
vn -0.1220 -0.9187 0.3756
vn -0.1220 -0.9187 -0.3756
vn 0.3195 -0.9187 -0.2321
vn 0.3195 -0.9187 0.2321
vn 0.8414 -0.5200 0.1470
vn 0.7236 -0.4472 0.5257
vn 0.5219 -0.7641 0.3792
vn 0.9168 -0.1251 0.3792
vn 0.6439 -0.1251 0.7548
vn 0.3998 -0.5200 0.7548
vn -0.4537 -0.7340 0.5054
vn -0.1993 -0.7641 0.6135
vn -0.2764 -0.4472 0.8507
vn -0.5943 -0.5200 0.6135
vn 0.1202 -0.5200 0.8457
vn -0.0773 -0.1251 0.9891
vn -0.5189 -0.1251 0.8457
vn -0.6451 -0.7641 -0.0000
vn -0.8944 -0.4472 0.0000
vn -0.7671 -0.5200 -0.3756
vn -0.6208 -0.7340 0.2753
vn -0.7671 -0.5200 0.3756
vn -0.9646 -0.1251 0.2321
vn -0.9646 -0.1251 -0.2321
vn -0.1993 -0.7641 -0.6135
vn -0.2764 -0.4472 -0.8507
vn 0.1202 -0.5200 -0.8457
vn -0.5943 -0.5200 -0.6135
vn -0.5189 -0.1251 -0.8457
vn -0.0773 -0.1251 -0.9891
vn 0.8414 -0.5200 -0.1470
vn 0.7236 -0.4472 -0.5257
vn 0.9168 -0.1251 -0.3792
vn 0.5219 -0.7641 -0.3792
vn 0.3998 -0.5200 -0.7548
vn 0.6439 -0.1251 -0.7548
vn 0.0773 0.1251 0.9891
vn 0.2764 0.4472 0.8507
vn -0.1202 0.5200 0.8457
vn 0.5189 0.1251 0.8457
vn 0.5943 0.5200 0.6135
vn 0.1993 0.7641 0.6135
vn -0.9168 0.1251 0.3792
vn -0.7236 0.4472 0.5257
vn -0.8414 0.5200 0.1470
vn -0.6439 0.1251 0.7548
vn -0.3998 0.5200 0.7548
vn -0.5219 0.7641 0.3792
vn -0.6439 0.1251 -0.7548
vn -0.7236 0.4472 -0.5257
vn -0.3998 0.5200 -0.7548
vn -0.9168 0.1251 -0.3792
vn -0.8414 0.5200 -0.1470
vn -0.5219 0.7641 -0.3792
vn 0.5189 0.1251 -0.8457
vn 0.2764 0.4472 -0.8507
vn 0.5943 0.5200 -0.6135
vn 0.0773 0.1251 -0.9891
vn -0.1202 0.5200 -0.8457
vn 0.1993 0.7641 -0.6135
vn 0.9646 0.1251 0.2321
vn 0.8944 0.4472 0.0000
vn 0.7671 0.5200 0.3756
vn 0.9646 0.1251 -0.2321
vn 0.7671 0.5200 -0.3756
vn 0.6451 0.7641 -0.0000
vn 0.1220 0.9187 0.3756
vn -0.0000 1.0000 -0.0000
vn -0.3195 0.9187 0.2321
vn 0.3949 0.9187 -0.0000
vn 0.1220 0.9187 -0.3756
vn -0.3195 0.9187 -0.2321
usemtl Material.001
s 1
f 12/1/1 4/2/2 57/3/3
f 2/4/4 34/5/5 46/6/6
f 5/7/7 16/8/8 24/9/9
f 3/10/10 45/11/11 58/12/12
f 25/13/13 15/14/14 68/15/15
f 14/16/16 111/17/17 69/18/18
f 13/19/19 56/20/20 112/21/21
f 26/22/22 67/23/23 80/24/24
f 37/25/25 78/26/26 91/27/27
f 48/28/28 89/29/29 102/30/30
f 36/31/31 27/32/32 79/33/33
f 47/34/34 38/35/35 90/36/36
f 59/37/37 49/38/38 101/39/39
f 60/40/40 100/41/41 113/42/42
f 70/43/43 115/44/44 123/45/45
f 81/46/46 71/47/47 122/48/48
f 92/49/49 82/50/50 126/51/51
f 103/52/52 93/53/53 125/54/54
f 114/55/55 104/56/56 124/57/57
f 1/58/58 6/59/59 7/60/60 11/61/61
f 2/4/4 8/62/62 7/63/60 6/64/59
f 3/10/10 9/65/63 7/66/60 8/67/62
f 4/2/2 10/68/64 7/69/60 9/70/63
f 5/7/7 11/71/61 7/72/60 10/73/64
f 12/1/1 17/74/65 18/75/66 22/76/67
f 13/19/19 19/77/68 18/75/66 17/74/65
f 14/16/16 20/78/69 18/75/66 19/77/68
f 15/14/14 21/79/70 18/75/66 20/78/69
f 16/8/8 22/80/67 18/75/66 21/79/70
f 23/81/71 28/82/72 29/83/73 33/84/74
f 24/9/9 30/85/75 29/86/73 28/87/72
f 25/13/13 31/88/76 29/89/73 30/85/75
f 26/22/22 32/90/77 29/91/73 31/88/76
f 27/32/32 33/84/74 29/92/73 32/93/77
f 34/5/5 39/94/78 40/95/79 44/96/80
f 35/97/81 41/98/82 40/95/79 39/99/78
f 36/31/31 42/100/83 40/95/79 41/98/82
f 37/25/25 43/101/84 40/95/79 42/100/83
f 38/35/35 44/96/80 40/95/79 43/101/84
f 45/11/11 50/102/85 51/103/86 55/104/87
f 46/6/6 52/105/88 51/103/86 50/106/85
f 47/34/34 53/107/89 51/103/86 52/105/88
f 48/28/28 54/108/90 51/103/86 53/107/89
f 49/38/38 55/104/87 51/103/86 54/108/90
f 56/20/20 61/109/91 62/110/92 66/111/93
f 57/3/3 63/112/94 62/110/92 61/109/91
f 58/12/12 64/113/95 62/110/92 63/114/94
f 59/37/37 65/115/96 62/110/92 64/113/95
f 60/40/40 66/111/93 62/110/92 65/115/96
f 67/23/23 72/116/97 73/117/98 77/118/99
f 68/15/15 74/119/100 73/117/98 72/116/97
f 69/18/18 75/120/101 73/117/98 74/119/100
f 70/43/43 76/121/102 73/117/98 75/120/101
f 71/47/47 77/118/99 73/117/98 76/122/102
f 78/26/26 83/123/103 84/124/104 88/125/105
f 79/33/33 85/126/106 84/127/104 83/123/103
f 80/24/24 86/128/107 84/129/104 85/130/106
f 81/46/46 87/131/108 84/132/104 86/128/107
f 82/50/50 88/125/105 84/133/104 87/134/108
f 89/29/29 94/135/109 95/136/110 99/137/111
f 90/36/36 96/138/112 95/136/110 94/135/109
f 91/27/27 97/139/113 95/136/110 96/138/112
f 92/49/49 98/140/114 95/136/110 97/139/113
f 93/53/53 99/137/111 95/136/110 98/141/114
f 100/41/41 105/142/115 106/143/116 110/144/117
f 101/39/39 107/145/118 106/143/116 105/142/115
f 102/30/30 108/146/119 106/143/116 107/145/118
f 103/52/52 109/147/120 106/143/116 108/146/119
f 104/56/56 110/144/117 106/143/116 109/148/120
f 111/17/17 116/149/121 117/150/122 121/151/123
f 112/21/21 118/152/124 117/150/122 116/149/121
f 113/42/42 119/153/125 117/150/122 118/152/124
f 114/55/55 120/154/126 117/150/122 119/153/125
f 115/44/44 121/151/123 117/150/122 120/155/126
f 122/48/48 127/156/127 128/157/128 132/158/129
f 123/45/45 129/159/130 128/160/128 127/161/127
f 124/57/57 130/162/131 128/163/128 129/164/130
f 125/54/54 131/165/132 128/166/128 130/167/131
f 126/51/51 132/168/129 128/169/128 131/170/132
f 23/81/71 1/58/58 11/61/61 28/82/72
f 28/87/72 11/71/61 5/7/7 24/9/9
f 4/2/2 12/1/1 22/76/67 10/68/64
f 10/73/64 22/80/67 16/8/8 5/7/7
f 15/14/14 25/13/13 30/85/75 21/79/70
f 21/79/70 30/85/75 24/9/9 16/8/8
f 56/20/20 13/19/19 17/74/65 61/109/91
f 61/109/91 17/74/65 12/1/1 57/3/3
f 3/10/10 58/12/12 63/114/94 9/65/63
f 9/70/63 63/112/94 57/3/3 4/2/2
f 34/5/5 2/4/4 6/64/59 39/94/78
f 39/99/78 6/59/59 1/58/58 35/97/81
f 27/32/32 36/31/31 41/98/82 33/84/74
f 33/84/74 41/98/82 35/97/81 23/81/71
f 45/11/11 3/10/10 8/67/62 50/102/85
f 50/106/85 8/62/62 2/4/4 46/6/6
f 38/35/35 47/34/34 52/105/88 44/96/80
f 44/96/80 52/105/88 46/6/6 34/5/5
f 49/38/38 59/37/37 64/113/95 55/104/87
f 55/104/87 64/113/95 58/12/12 45/11/11
f 111/17/17 14/16/16 19/77/68 116/149/121
f 116/149/121 19/77/68 13/19/19 112/21/21
f 60/40/40 113/42/42 118/152/124 66/111/93
f 66/111/93 118/152/124 112/21/21 56/20/20
f 67/23/23 26/22/22 31/88/76 72/116/97
f 72/116/97 31/88/76 25/13/13 68/15/15
f 14/16/16 69/18/18 74/119/100 20/78/69
f 20/78/69 74/119/100 68/15/15 15/14/14
f 78/26/26 37/25/25 42/100/83 83/123/103
f 83/123/103 42/100/83 36/31/31 79/33/33
f 26/22/22 80/24/24 85/130/106 32/90/77
f 32/93/77 85/126/106 79/33/33 27/32/32
f 89/29/29 48/28/28 53/107/89 94/135/109
f 94/135/109 53/107/89 47/34/34 90/36/36
f 37/25/25 91/27/27 96/138/112 43/101/84
f 43/101/84 96/138/112 90/36/36 38/35/35
f 100/41/41 60/40/40 65/115/96 105/142/115
f 105/142/115 65/115/96 59/37/37 101/39/39
f 48/28/28 102/30/30 107/145/118 54/108/90
f 54/108/90 107/145/118 101/39/39 49/38/38
f 115/44/44 70/43/43 75/120/101 121/151/123
f 121/151/123 75/120/101 69/18/18 111/17/17
f 71/47/47 81/46/46 86/128/107 77/118/99
f 77/118/99 86/128/107 80/24/24 67/23/23
f 82/50/50 92/49/49 97/139/113 88/125/105
f 88/125/105 97/139/113 91/27/27 78/26/26
f 93/53/53 103/52/52 108/146/119 99/137/111
f 99/137/111 108/146/119 102/30/30 89/29/29
f 104/56/56 114/55/55 119/153/125 110/144/117
f 110/144/117 119/153/125 113/42/42 100/41/41
f 122/48/48 71/47/47 76/122/102 127/156/127
f 127/161/127 76/121/102 70/43/43 123/45/45
f 114/55/55 124/57/57 129/164/130 120/154/126
f 120/155/126 129/159/130 123/45/45 115/44/44
f 126/51/51 82/50/50 87/134/108 132/168/129
f 132/158/129 87/131/108 81/46/46 122/48/48
f 125/54/54 93/53/53 98/141/114 131/165/132
f 131/170/132 98/140/114 92/49/49 126/51/51
f 124/57/57 104/56/56 109/148/120 130/162/131
f 130/167/131 109/147/120 103/52/52 125/54/54
f 1/58/58 23/81/71 35/97/81
