{
    "asset" : {
        "generator" : "Khronos glTF Blender I/O v1.3.48",
        "version" : "2.0"
    },
    "scene" : 0,
    "scenes" : [
        {
            "name" : "Scene",
            "nodes" : [
                0
            ]
        }
    ],
    "nodes" : [
        {
            "mesh" : 0,
            "name" : "Icosphere"
        }
    ],
    "materials" : [
        {
            "doubleSided" : true,
            "emissiveFactor" : [
                0,
                0,
                0
            ],
            "name" : "numbers",
            "normalTexture" : {
                "index" : 0,
                "texCoord" : 0
            },
            "pbrMetallicRoughness" : {
                "baseColorTexture" : {
                    "index" : 1,
                    "texCoord" : 0
                },
                "metallicRoughnessTexture" : {
                    "index" : 2,
                    "texCoord" : 0
                }
            }
        },
        {
            "doubleSided" : true,
            "emissiveFactor" : [
                0,
                0,
                0
            ],
            "name" : "base",
            "normalTexture" : {
                "index" : 3,
                "texCoord" : 0
            },
            "pbrMetallicRoughness" : {
                "baseColorTexture" : {
                    "index" : 4,
                    "texCoord" : 0
                },
                "metallicRoughnessTexture" : {
                    "index" : 5,
                    "texCoord" : 0
                }
            }
        }
    ],
    "meshes" : [
        {
            "name" : "Icosphere.001",
            "primitives" : [
                {
                    "attributes" : {
                        "POSITION" : 0,
                        "NORMAL" : 1,
                        "TEXCOORD_0" : 2
                    },
                    "indices" : 3,
                    "material" : 0
                },
                {
                    "attributes" : {
                        "POSITION" : 4,
                        "NORMAL" : 5,
                        "TEXCOORD_0" : 6
                    },
                    "indices" : 7,
                    "material" : 1
                }
            ]
        }
    ],
    "textures" : [
        {
            "source" : 0
        },
        {
            "source" : 1
        },
        {
            "source" : 2
        },
        {
            "source" : 3
        },
        {
            "source" : 4
        },
        {
            "source" : 5
        }
    ],
    "images" : [
        {
            "bufferView" : 4,
            "mimeType" : "image/png",
            "name" : "dice345_numbers_Normal"
        },
        {
            "bufferView" : 5,
            "mimeType" : "image/png",
            "name" : "dice345_numbers_BaseColor"
        },
        {
            "bufferView" : 6,
            "mimeType" : "image/png",
            "name" : "dice345_numbers_Metallic.png-dice345_numbers_Roughness.png"
        },
        {
            "bufferView" : 11,
            "mimeType" : "image/png",
            "name" : "dice345_base_Normal"
        },
        {
            "bufferView" : 12,
            "mimeType" : "image/png",
            "name" : "dice345_base_BaseColor"
        },
        {
            "bufferView" : 13,
            "mimeType" : "image/png",
            "name" : "dice345_base_Metallic.png-dice345_base_Roughness.png"
        }
    ],
    "accessors" : [
        {
            "bufferView" : 0,
            "componentType" : 5126,
            "count" : 17556,
            "max" : [
                4.009953498840332,
                3.7945942878723145,
                4.02088737487793
            ],
            "min" : [
                -4.038026809692383,
                -3.706073045730591,
                -4.005430221557617
            ],
            "type" : "VEC3"
        },
        {
            "bufferView" : 1,
            "componentType" : 5126,
            "count" : 17556,
            "type" : "VEC3"
        },
        {
            "bufferView" : 2,
            "componentType" : 5126,
            "count" : 17556,
            "type" : "VEC2"
        },
        {
            "bufferView" : 3,
            "componentType" : 5123,
            "count" : 17556,
            "type" : "SCALAR"
        },
        {
            "bufferView" : 7,
            "componentType" : 5126,
            "count" : 2202,
            "max" : [
                4.248723983764648,
                4.856039524078369,
                4.364671230316162
            ],
            "min" : [
                -4.24872350692749,
                -4.856039047241211,
                -4.364671230316162
            ],
            "type" : "VEC3"
        },
        {
            "bufferView" : 8,
            "componentType" : 5126,
            "count" : 2202,
            "type" : "VEC3"
        },
        {
            "bufferView" : 9,
            "componentType" : 5126,
            "count" : 2202,
            "type" : "VEC2"
        },
        {
            "bufferView" : 10,
            "componentType" : 5123,
            "count" : 6840,
            "type" : "SCALAR"
        }
    ],
    "bufferViews" : [
        {
            "buffer" : 0,
            "byteLength" : 210672,
            "byteOffset" : 0
        },
        {
            "buffer" : 0,
            "byteLength" : 210672,
            "byteOffset" : 210672
        },
        {
            "buffer" : 0,
            "byteLength" : 140448,
            "byteOffset" : 421344
        },
        {
            "buffer" : 0,
            "byteLength" : 35112,
            "byteOffset" : 561792
        },
        {
            "buffer" : 0,
            "byteLength" : 5356,
            "byteOffset" : 596904
        },
        {
            "buffer" : 0,
            "byteLength" : 5359,
            "byteOffset" : 602260
        },
        {
            "buffer" : 0,
            "byteLength" : 15799,
            "byteOffset" : 607620
        },
        {
            "buffer" : 0,
            "byteLength" : 26424,
            "byteOffset" : 623420
        },
        {
            "buffer" : 0,
            "byteLength" : 26424,
            "byteOffset" : 649844
        },
        {
            "buffer" : 0,
            "byteLength" : 17616,
            "byteOffset" : 676268
        },
        {
            "buffer" : 0,
            "byteLength" : 13680,
            "byteOffset" : 693884
        },
        {
            "buffer" : 0,
            "byteLength" : 5356,
            "byteOffset" : 707564
        },
        {
            "buffer" : 0,
            "byteLength" : 5358,
            "byteOffset" : 712920
        },
        {
            "buffer" : 0,
            "byteLength" : 15800,
            "byteOffset" : 718280
        }
    ],
    "buffers" : [
        {
            "byteLength" : 734080,
            "uri" : "data:application/octet-stream;base64,"
        }
    ]
}
